<?xml version="1.0" encoding="UTF-8" standalone="no"?>
<svg width="55px" height="55px" viewBox="0 0 55 55" version="1.1" xmlns="http://www.w3.org/2000/svg" xmlns:xlink="http://www.w3.org/1999/xlink">
    <!-- Generator: Sketch 41.2 (35397) - http://www.bohemiancoding.com/sketch -->
    <title>Question</title>
    <desc>Created with Sketch.</desc>
    <defs></defs>
    <g id="Page-1" stroke="none" stroke-width="1" fill="none" fill-rule="evenodd">
        <g id="Question" fill="#000000">
            <path d="M51.8,3.2 L51.8,51.2 L3.8,51.2 L3.8,3.2 L51.8,3.2 L51.8,3.2 Z M54.8,0.2 L0.8,0.2 L0.8,54.2 L54.8,54.2 L54.8,0.2 L54.8,0.2 Z" id="Shape"></path>
            <g id="Group" transform="translate(18.000000, 12.000000)">
                <rect id="Rectangle-path" x="8.3" y="25.5" width="3" height="5"></rect>
                <path d="M8.3,22.7 L8.2,16.3 L9.7,16.3 C13.3,16.3 16.2,13.4 16.2,9.8 C16.2,6.2 13.3,3.3 9.7,3.3 C6.1,3.3 3.2,6.2 3.2,9.8 L0.2,9.8 C0.2,4.6 4.5,0.3 9.7,0.3 C14.9,0.3 19.2,4.6 19.2,9.8 C19.2,14.5 15.7,18.5 11.2,19.2 L11.2,22.6 L8.3,22.7 Z" id="Shape"></path>
            </g>
        </g>
    </g>
</svg>